<svg xmlns="http://www.w3.org/2000/svg" viewBox="0 0 1620 492"><g fill="none" stroke-width="2"><path stroke="#d9d9db" d="M1612.98 66.2a57.2 57.2 0 0 0-57.2-57.2H65.94a57.2 57.2 0 0 0-57.2 57.2v361.1a57.2 57.2 0 0 0 57.2 57.2h1489.84a57.2 57.2 0 0 0 57.2-57.2V66.2" vector-effect="non-scaling-stroke"/><path stroke="#5b5d5f" d="M53.18 22.45C33.31 27.58 20.75 45.83 20.75 66q-.04 176.1.02 352.19.01 14.7 1.11 19.92c3.3 15.48 15.3 28.61 30.77 32.69q5.51 1.45 17.34 1.45h1485.46c25.16 0 45.75-19.11 45.72-44.75q-.15-178.13-.19-356.25 0-11.64-1.44-17.24c-4.03-15.7-16.9-28.06-32.64-31.71q-5.62-1.3-19.89-1.3-738.23-.01-1476.45.01-11.79 0-17.38 1.44" vector-effect="non-scaling-stroke"/><path stroke="#828383" d="M329.26 86c-26.72 9.66-48.41 36.17-45.62 66a1 1 0 0 0 .94.91c19.31 1.04 37.83-10.79 48.33-26.26q13.17-19.39 11.85-42.81a1 1 0 0 0-1.07-.94q-7.09.45-14.43 3.1M853 87.32a.32.32 0 0 0-.32-.32h-12.36a.32.32 0 0 0-.32.32v81.36a.32.32 0 0 0 .32.32h12.36a.32.32 0 0 0 .32-.32V87.32m189.13 29.39q-2.89-3.23-6.9-4.43-3.98-1.19-9.55-.76c-31.33 2.39-30.03 61.87 3.82 58.5q5.17-.51 8.65-2.62 3.39-2.06 5.61-5.53 1.36-2.12 1.47.4l.25 5.52a1 1 0 0 0 1 .96h9.43a1 1 0 0 0 1-1.02q-.11-5.71-.13-11.42-.14-33.63-.33-68.31a1.01 1 89.7 0 0-1-1h-10.96a1 1 0 0 0-1 1l.03 28.18q.01 2.1-1.39.53m303.25 1.87q-1.38 1.44-1.38-.56V88a1 1 0 0 0-1-1h-10.75a1 1 0 0 0-1 1v79.75a1 1 0 0 0 1 1h10.74a1.01 1-89.7 0 0 1-1q.01-15.98.03-31.95c.02-16.97 22.56-18.99 23.11-1.71q.58 17.88.06 33.63a1 1 0 0 0 1 1.03h10.78a1 1 0 0 0 1-.99q.18-29.57-.04-36.45c-.27-8.54-5.15-16.48-13.5-19.08-5.97-1.85-14.16-.82-18.88 4.09q-1.13 1.16-2.17 2.26m-818.87 34.93q-.11 7.15.04 14.3a1 .98 2.6 0 0 .9.97q14.82 1.48 24.62.58c22.41-2.08 37.6-13.93 38.85-37.38 1.05-19.88-7.34-36.66-28.71-40.26q-17.47-2.94-34.87.15a1 .99 85.2 0 0-.82.98c-.08 20.22.3 40.45-.01 60.66m774.27-42.17-.29-11.56a.99.99 0 0 0-1.28-.93l-10.5 3.14a1 .99 81.9 0 0-.71.96v8.48a1 1 0 0 1-.99 1l-6.52.04a1 1 0 0 0-.99 1v8.03a1 1 0 0 0 1 1h6.51a1 1 0 0 1 1 1.01q-.13 15.16.14 30.28c.27 15.3 12.31 18.53 24.89 15.06a1.01 1.01 0 0 0 .73-1.01l-.3-7.72a1.01 1-2.3 0 0-1.05-.96c-5.03.22-11.17.58-11.63-6.24q-.69-10.4-.12-29.45a1 1 0 0 1 1-.97h11.83a1 1 0 0 0 1-1v-8.27a1 1 0 0 0-1.01-1l-11.7.09a1.01 1.01 0 0 1-1.01-.98m110.84 32.41h35.19a1 .99 2.9 0 0 .99-.89q.75-6.87-.52-12.85c-3.02-14.25-14.91-21.16-28.58-18.18-16.28 3.56-22.92 21.25-20.21 36.17 4.17 22.95 27.14 25.35 45.73 18.92a.99.99 0 0 0 .65-1.14l-1.53-7.38a1 1 0 0 0-1.32-.74q-9.34 3.36-17.43 2.22-12.98-1.81-13.97-15.06a1 1 0 0 1 1-1.07m-782.69-32.16c-31.92 3.6-31.71 56.6 1.09 58.52 41.35 2.43 40.92-63.26-1.09-58.52m151.77 7.15-.25-5.55a1 1 0 0 0-1-.96l-9.41.07a1 1 0 0 0-.99 1.03q.71 27.2.11 54.4a1 1 0 0 0 1 1.02h11.38a1 1 0 0 0 1-1.01q-.17-15.51-.06-30.98.04-5.15 1.32-7.77c2.71-5.59 9.26-8.46 15.02-6.01 6.19 2.63 6.62 9.29 6.63 15.27q.02 14.73.08 29.5a1 1 0 0 0 1 1h10.84a1 1 0 0 0 1-.97q.44-16.17-.08-32.27-.26-8.11-1.63-11.78c-3.49-9.4-12.66-13.85-22.36-11.96q-7.26 1.42-12.19 7.44-1.32 1.62-1.41-.47m110.94-6.61c-25.37 5.13-28.09 44.8-6.01 55.4 6.74 3.23 15.43 3.49 22.44.99 12.06-4.3 17.99-15.45 17.88-28.03-.18-19.81-13.78-32.51-34.31-28.36m82.48 52.54.39 3.2a1.01 1-3.5 0 0 1 .88h9.46a1 1 0 0 0 1-1.04q-.7-16.33-.47-32.66c.35-25.95-22.9-27.67-40.99-19.48a1.01 1 69.4 0 0-.54 1.21l2.18 7a1 1 0 0 0 1.46.57q5.48-3.19 11.66-3.59 5.69-.37 9.05 1.71 4.37 2.71 4.18 9.01a1.01 1-87.5 0 1-1.05.97q-9.65-.46-18.4 3.06c-20.82 8.37-16.18 37.52 7.81 34.3q7.11-.96 11.53-5.7 1.46-1.57 1.73.56m153.96-52.32c-20.66 4.96-25.11 33.19-13.65 48.07 10.56 13.7 35.25 13.24 44.54-2.48 13.22-22.39-1.62-52.62-30.89-45.59m64.61 6.26-.27-5.39a.99.99 0 0 0-1-.95l-9.31.06a1 1 0 0 0-.99 1.03q.71 27.18 0 54.36a1 1 0 0 0 1 1.03h11.37a1 1 0 0 0 1-1q-.01-15.33.03-30.62.02-5.56 1.4-8.35c3.22-6.5 12.61-9.26 17.91-3.9 2.87 2.9 3.68 7.35 3.68 11.37q-.03 15.74.01 31.5a1.01 1 89.7 0 0 1 1h11.22a1.01 1 89.7 0 0 1-1.02q-.28-15.73-.29-31.45c0-13.88-6.09-26.52-22.22-24.73q-8.41.93-14.13 7.54-1.31 1.51-1.41-.48m-478.95 12.26q4.63 18.78 10.63 37.19a1.01 1 80.7 0 0 .95.69h10.34a1 .99-81.2 0 0 .95-.7l17.05-54.5a1 1 0 0 0-.95-1.3H742.2a1.01 1-81.9 0 0-.96.73q-5.57 19.67-9.92 39.64-.72 3.35-1.55.03-5-20.01-11.15-39.7a1.01 1-8.6 0 0-.96-.7h-8.85a1 1 0 0 0-.96.72l-11.53 39.75q-.86 2.96-1.55-.04l-9.11-39.58a1.02 1-6.7 0 0-1-.78l-11.13.22a1 1 0 0 0-.94 1.28l15.95 54.21a1 1 0 0 0 .96.72h10.47a1.01.99 9.3 0 0 .95-.67q6.33-18.4 11.27-37.22.8-3.04 1.55.01m-439.67 36.32c-11.98-5.02-24.58-10.31-37.72-10.4-39.22-.27-68.22 33.25-73.94 69.55-7.4 46.94 10.83 98.38 39.74 134.78 14.67 18.47 29.78 32.02 55.2 21.51 16.73-6.92 30.05-11.46 48.4-6.39 7.24 1.99 16.73 7.1 24.34 8.66q22.54 4.59 38.42-12.64 18.84-20.45 32.26-48.26 3.78-7.82 6.77-17.88a1 .99-69.3 0 0-.53-1.19c-37.54-17.58-52.85-63.77-27.6-98.8q8.13-11.28 19.76-19.14a1 .99-34.6 0 0 .26-1.4q-14.09-19.86-37.67-26.62c-24.14-6.93-42.18-.6-65.17 8.65-7.99 3.21-14.57 2.9-22.52-.43m685.92 92.82c-3.72 24.72 12.55 40.86 33.48 49.74 15.01 6.38 37.76 12.61 35.58 33.92-1.22 11.85-10.99 19.07-22.04 20.35q-23.33 2.69-43.31-9.07a1 .99-66.8 0 0-1.47.59l-5.54 19.87a1.02 1.01-67.4 0 0 .47 1.15c24.51 13.62 69.77 14.73 89.05-9.88 8.73-11.14 10.78-27.02 7.29-40.38-3.91-14.92-17.79-25.2-31.75-31.23-13.9-6-33.98-12.55-36.18-27.09-3.18-20.93 20.19-25.53 35.26-23.34q11.3 1.64 20.75 6.23a1 1 0 0 0 1.39-.61l5.9-19.11a1 .99 22.1 0 0-.51-1.19c-28.19-13.87-82.33-10.08-88.37 30.05M604 337a.34.34 0 0 1 .33.24l14.74 46.26a.34.34 0 0 0 .33.24l26.83.01a.34.34 0 0 0 .33-.44l-51.05-157.82a.34.34 0 0 0-.33-.24h-31.45a.34.34 0 0 0-.33.24l-50.71 157.52a.34.34 0 0 0 .32.44l26.02.27a.34.34 0 0 0 .32-.24l14.08-46.24a.34.34 0 0 1 .32-.24H604m507.81-48.25h25.95a1 1 0 0 0 1-.99l.24-17.52a1 1 0 0 0-1-1.02l-26.27.04a1 1 0 0 1-1-1l.06-26.23a1 1 0 0 0-1.29-.96l-23.29 7.03a1.01 1-8.6 0 0-.71.96v19.2a1 .99-89.7 0 1-1 1l-14.5-.04a1 1 0 0 0-1 1v17.55a1 1 0 0 0 1 1l14.47-.06a1 .99 89.7 0 1 1 1q-.02 44.14.12 58.6c.17 19.18 7.16 36.19 28.92 37.37q12.11.66 22.41-2.2a1 1 0 0 0 .73-1l-.68-17.96a1 1 0 0 0-1.22-.94q-4.08.94-10.01.91c-11.24-.06-14.67-9.41-14.77-18.99q-.15-14.01-.16-55.75a1 1 0 0 1 1-1m272.58 44.08c1.8-.39 4.25.24 5.43.23q34.37-.27 68.78-.35a1 1 0 0 0 .99-.85q3.33-21.69-5.37-40.32c-9.83-21.07-31.78-28.14-53.64-23.71-22.4 4.54-36.48 23.85-40.56 45.41-5.97 31.56 6.72 65.03 41.66 71.19 17.13 3.03 35.46.84 51.62-5.34a1.01 1.01 0 0 0 .62-1.15l-3.55-16.34a1.01 1-16.5 0 0-1.33-.72q-15.06 5.59-30.8 5.04-10.66-.37-17.94-4.17-15.52-8.09-16.7-27.88a1.02 1-8.1 0 1 .79-1.04m-689.11 39.12q5.42 7.71 13.64 11.13 7.58 3.14 18.45 3.07c25.43-.16 43.63-19.24 48.34-43.2 5.04-25.64-.26-58.81-26.46-71.79-12.19-6.04-29.58-5.65-41.67.75q-9.14 4.83-15.05 13.71-1.3 1.95-1.47-.38L690 270.19a.99.99 0 0 0-.99-.93l-20.86-.03a1 1 0 0 0-1 1.05q.48 9.69.81 19.48.3 8.84.3 20-.04 59.59.03 119.24a1 1 0 0 0 1 1h23.43a1 1 0 0 0 1-1l.1-56.59q.01-2.52 1.46-.46m126.94-87.54-1.16-14.24a1 .99 87.8 0 0-.99-.92l-20.82-.03a1 1 0 0 0-1 1.06c1.33 24.3.53 49.6.85 74.53.36 28.03.3 56.13.09 84.18a1.01 1 90 0 0 1 1.01H824a1 1 0 0 0 1-1v-56.42q0-2.43 1.44-.48 7.34 9.91 18.65 12.72c26.39 6.55 51.44-8.55 59.52-33.74q6.95-21.64 1.95-44.12c-4.6-20.68-19.31-38.01-41.46-39.88q-26.23-2.21-41.08 17.84-1.58 2.14-1.8-.51m359.71-11.34c-43.77 22.83-38.32 104.5 15.03 112.14 32 4.58 59.69-10.84 66.28-43.72 6.6-32.91-7.34-69.43-44.48-73.98-12.52-1.53-25.78-.21-36.83 5.56m127.02 15.05-.53-17.9a.99.99 0 0 0-.99-.97h-20.64a1 .99 88.6 0 0-.99 1.05q.67 14.9.68 22.45.04 44.88.02 89.74a1 .99-90 0 0 .99 1l23.51.13a1 1 0 0 0 1.01-1q-.04-27.41.02-55.11c.03-15.68 4.66-34 23.48-35.98q2.66-.28 10.44.14a1 1 0 0 0 1.05-1v-22.34a.99.99 0 0 0-.84-.98q-14.78-2.42-25.06 6.48-7.06 6.11-10.62 14.57-1.43 3.4-1.53-.28" vector-effect="non-scaling-stroke"/><path stroke="#828383" d="M1028.48 121.75c-13.2 1.98-14.39 21.05-9.79 30.23 6.23 12.41 22.5 8.98 24.71-4.32.53-3.18.85-15.08-1.5-19.33-2.73-4.92-7.87-7.41-13.42-6.58M555.23 158.5c16.01-2.61 22.53-16.31 22.09-31.15-.53-17.36-10.22-26.46-27.62-26.63q-4.52-.04-9.02.28a1.01 1-2.2 0 0-.93 1v56.04a.99.99 0 0 0 .9.99q7.08.69 14.58-.53m858.71-32.81q-2.5 3.31-3.22 7.65a1 1 0 0 0 .99 1.16h23.07a1.01 1 89.4 0 0 1-1.03q-.13-5.08-2.99-8.67c-5.08-6.41-14.01-5.53-18.85.89m-781.32 35.04a19.99 14.41 90.4 0 0 14.55-19.89 19.99 14.41 90.4 0 0-14.27-20.09 19.99 14.41 90.4 0 0-14.55 19.89 19.99 14.41 90.4 0 0 14.27 20.09m265.56.01a20 14.43 90.2 0 0 14.5-19.95 20 14.43 90.2 0 0-14.36-20.05 20 14.43 90.2 0 0-14.5 19.95 20 14.43 90.2 0 0 14.36 20.05m61.38-17.6c-11.38 3.84-7.58 21.29 5.76 16.56 8.26-2.93 7.64-10.19 7.68-17.71a.99.99 0 0 0-1.02-1q-6.62.18-12.42 2.15m176.05 17.59a19.99 14.41 90.4 0 0 14.55-19.89 19.99 14.41 90.4 0 0-14.27-20.09 19.99 14.41 90.4 0 0-14.55 19.89 19.99 14.41 90.4 0 0 14.27 20.09M598.26 317a1 1 0 0 0 .95-1.31q-5.75-17.55-11.34-35.11-2.79-8.76-4.81-16.38-1.95-7.32-3.76-14.62-.79-3.21-1.55.01-2.05 8.67-4.27 17.29-2.23 8.65-5.48 18.99-4.73 15.03-9.45 29.84a1 1 0 0 0 .95 1.31l38.76-.02m825.18-2.94q8.48.16 11.45.08a1 1 0 0 0 .98-1.01q-.11-9.66-5.1-17.9c-7.93-13.11-26.35-13.74-36.84-3.4q-8.54 8.42-10.13 21.25a1 1 0 0 0 1 1.12q30.84-.28 38.64-.14m-729.15 25.98c.92 10.9 8.3 22.14 19.44 24.74 45.78 10.67 50.31-72.78 10.89-77.15q-8.94-.99-16.6 3.88c-16.32 10.35-15.18 31.48-13.73 48.53m130.79-3.07c.24 14.72 10.44 28.54 25.95 28.8 28.14.47 34.66-31.19 29.77-53.05-2.72-12.17-10.71-22.98-23.42-24.79q-10.24-1.45-18.83 4.11c-15.32 9.94-13.76 27.37-13.47 44.93m377.69-50.43c-32.73 7.4-31.5 77.23 2.75 80.37q14.77 1.36 23.31-10.33c11.07-15.17 11.75-36.29 4.5-53.12-5.44-12.63-16.94-20-30.56-16.92" vector-effect="non-scaling-stroke"/></g><path fill="#fff" d="M0 0h1620v492H0V0Zm1612.98 66.2a57.2 57.2 0 0 0-57.2-57.2H65.94a57.2 57.2 0 0 0-57.2 57.2v361.1a57.2 57.2 0 0 0 57.2 57.2h1489.84a57.2 57.2 0 0 0 57.2-57.2V66.2Z"/><path fill="#b2b3b6" d="M1612.98 427.3a57.2 57.2 0 0 1-57.2 57.2H65.94a57.2 57.2 0 0 1-57.2-57.2V66.2A57.2 57.2 0 0 1 65.94 9h1489.84a57.2 57.2 0 0 1 57.2 57.2v361.1ZM53.18 22.45C33.31 27.58 20.75 45.83 20.75 66q-.04 176.1.02 352.19.01 14.7 1.11 19.92c3.3 15.48 15.3 28.61 30.77 32.69q5.51 1.45 17.34 1.45h1485.46c25.16 0 45.75-19.11 45.72-44.75q-.15-178.13-.19-356.25 0-11.64-1.44-17.24c-4.03-15.7-16.9-28.06-32.64-31.71q-5.62-1.3-19.89-1.3-738.23-.01-1476.45.01-11.79 0-17.38 1.44Z"/><path fill="#040707" d="M20.75 66c0-20.17 12.56-38.42 32.43-43.55q5.59-1.44 17.38-1.44 738.22-.02 1476.45-.01 14.27 0 19.89 1.3c15.74 3.65 28.61 16.01 32.64 31.71q1.44 5.6 1.44 17.24.04 178.12.19 356.25c.03 25.64-20.56 44.75-45.72 44.75H69.99q-11.83 0-17.34-1.45c-15.47-4.08-27.47-17.21-30.77-32.69q-1.1-5.22-1.11-19.92Q20.71 242.1 20.75 66Zm308.51 20c-26.72 9.66-48.41 36.17-45.62 66a1 1 0 0 0 .94.91c19.31 1.04 37.83-10.79 48.33-26.26q13.17-19.39 11.85-42.81a1 1 0 0 0-1.07-.94q-7.09.45-14.43 3.1ZM853 87.32a.32.32 0 0 0-.32-.32h-12.36a.32.32 0 0 0-.32.32v81.36a.32.32 0 0 0 .32.32h12.36a.32.32 0 0 0 .32-.32V87.32Zm189.13 29.39q-2.89-3.23-6.9-4.43-3.98-1.19-9.55-.76c-31.33 2.39-30.03 61.87 3.82 58.5q5.17-.51 8.65-2.62 3.39-2.06 5.61-5.53 1.36-2.12 1.47.4l.25 5.52a1 1 0 0 0 1 .96h9.43a1 1 0 0 0 1-1.02q-.11-5.71-.13-11.42-.14-33.63-.33-68.31a1.01 1 89.7 0 0-1-1h-10.96a1 1 0 0 0-1 1l.03 28.18q.01 2.1-1.39.53Zm303.25 1.87q-1.38 1.44-1.38-.56V88a1 1 0 0 0-1-1h-10.75a1 1 0 0 0-1 1v79.75a1 1 0 0 0 1 1h10.74a1.01 1-89.7 0 0 1-1q.01-15.98.03-31.95c.02-16.97 22.56-18.99 23.11-1.71q.58 17.88.06 33.63a1 1 0 0 0 1 1.03h10.78a1 1 0 0 0 1-.99q.18-29.57-.04-36.45c-.27-8.54-5.15-16.48-13.5-19.08-5.97-1.85-14.16-.82-18.88 4.09q-1.13 1.16-2.17 2.26Zm-818.87 34.93q-.11 7.15.04 14.3a1 .98 2.6 0 0 .9.97q14.82 1.48 24.62.58c22.41-2.08 37.6-13.93 38.85-37.38 1.05-19.88-7.34-36.66-28.71-40.26q-17.47-2.94-34.87.15a1 .99 85.2 0 0-.82.98c-.08 20.22.3 40.45-.01 60.66Zm774.27-42.17-.29-11.56a.99.99 0 0 0-1.28-.93l-10.5 3.14a1 .99 81.9 0 0-.71.96v8.48a1 1 0 0 1-.99 1l-6.52.04a1 1 0 0 0-.99 1v8.03a1 1 0 0 0 1 1h6.51a1 1 0 0 1 1 1.01q-.13 15.16.14 30.28c.27 15.3 12.31 18.53 24.89 15.06a1.01 1.01 0 0 0 .73-1.01l-.3-7.72a1.01 1-2.3 0 0-1.05-.96c-5.03.22-11.17.58-11.63-6.24q-.69-10.4-.12-29.45a1 1 0 0 1 1-.97h11.83a1 1 0 0 0 1-1v-8.27a1 1 0 0 0-1.01-1l-11.7.09a1.01 1.01 0 0 1-1.01-.98Zm110.84 32.41h35.19a1 .99 2.9 0 0 .99-.89q.75-6.87-.52-12.85c-3.02-14.25-14.91-21.16-28.58-18.18-16.28 3.56-22.92 21.25-20.21 36.17 4.17 22.95 27.14 25.35 45.73 18.92a.99.99 0 0 0 .65-1.14l-1.53-7.38a1 1 0 0 0-1.32-.74q-9.34 3.36-17.43 2.22-12.98-1.81-13.97-15.06a1 1 0 0 1 1-1.07Zm-782.69-32.16c-31.92 3.6-31.71 56.6 1.09 58.52 41.35 2.43 40.92-63.26-1.09-58.52Zm151.77 7.15-.25-5.55a1 1 0 0 0-1-.96l-9.41.07a1 1 0 0 0-.99 1.03q.71 27.2.11 54.4a1 1 0 0 0 1 1.02h11.38a1 1 0 0 0 1-1.01q-.17-15.51-.06-30.98.04-5.15 1.32-7.77c2.71-5.59 9.26-8.46 15.02-6.01 6.19 2.63 6.62 9.29 6.63 15.27q.02 14.73.08 29.5a1 1 0 0 0 1 1h10.84a1 1 0 0 0 1-.97q.44-16.17-.08-32.27-.26-8.11-1.63-11.78c-3.49-9.4-12.66-13.85-22.36-11.96q-7.26 1.42-12.19 7.44-1.32 1.62-1.41-.47Zm110.94-6.61c-25.37 5.13-28.09 44.8-6.01 55.4 6.74 3.23 15.43 3.49 22.44.99 12.06-4.3 17.99-15.45 17.88-28.03-.18-19.81-13.78-32.51-34.31-28.36Zm82.48 52.54.39 3.2a1.01 1-3.5 0 0 1 .88h9.46a1 1 0 0 0 1-1.04q-.7-16.33-.47-32.66c.35-25.95-22.9-27.67-40.99-19.48a1.01 1 69.4 0 0-.54 1.21l2.18 7a1 1 0 0 0 1.46.57q5.48-3.19 11.66-3.59 5.69-.37 9.05 1.71 4.37 2.71 4.18 9.01a1.01 1-87.5 0 1-1.05.97q-9.65-.46-18.4 3.06c-20.82 8.37-16.18 37.52 7.81 34.3q7.11-.96 11.53-5.7 1.46-1.57 1.73.56Zm153.96-52.32c-20.66 4.96-25.11 33.19-13.65 48.07 10.56 13.7 35.25 13.24 44.54-2.48 13.22-22.39-1.62-52.62-30.89-45.59Zm64.61 6.26-.27-5.39a.99.99 0 0 0-1-.95l-9.31.06a1 1 0 0 0-.99 1.03q.71 27.18 0 54.36a1 1 0 0 0 1 1.03h11.37a1 1 0 0 0 1-1q-.01-15.33.03-30.62.02-5.56 1.4-8.35c3.22-6.5 12.61-9.26 17.91-3.9 2.87 2.9 3.68 7.35 3.68 11.37q-.03 15.74.01 31.5a1.01 1 89.7 0 0 1 1h11.22a1.01 1 89.7 0 0 1-1.02q-.28-15.73-.29-31.45c0-13.88-6.09-26.52-22.22-24.73q-8.41.93-14.13 7.54-1.31 1.51-1.41-.48Zm-478.95 12.26q4.63 18.78 10.63 37.19a1.01 1 80.7 0 0 .95.69h10.34a1 .99-81.2 0 0 .95-.7l17.05-54.5a1 1 0 0 0-.95-1.3H742.2a1.01 1-81.9 0 0-.96.73q-5.57 19.67-9.92 39.64-.72 3.35-1.55.03-5-20.01-11.15-39.7a1.01 1-8.6 0 0-.96-.7h-8.85a1 1 0 0 0-.96.72l-11.53 39.75q-.86 2.96-1.55-.04l-9.11-39.58a1.02 1-6.7 0 0-1-.78l-11.13.22a1 1 0 0 0-.94 1.28l15.95 54.21a1 1 0 0 0 .96.72h10.47a1.01.99 9.3 0 0 .95-.67q6.33-18.4 11.27-37.22.8-3.04 1.55.01Zm-439.67 36.32c-11.98-5.02-24.58-10.31-37.72-10.4-39.22-.27-68.22 33.25-73.94 69.55-7.4 46.94 10.83 98.38 39.74 134.78 14.67 18.47 29.78 32.02 55.2 21.51 16.73-6.92 30.05-11.46 48.4-6.39 7.24 1.99 16.73 7.1 24.34 8.66q22.54 4.59 38.42-12.64 18.84-20.45 32.26-48.26 3.78-7.82 6.77-17.88a1 .99-69.3 0 0-.53-1.19c-37.54-17.58-52.85-63.77-27.6-98.8q8.13-11.28 19.76-19.14a1 .99-34.6 0 0 .26-1.4q-14.09-19.86-37.67-26.62c-24.14-6.93-42.18-.6-65.17 8.65-7.99 3.21-14.57 2.9-22.52-.43Zm685.92 92.82c-3.72 24.72 12.55 40.86 33.48 49.74 15.01 6.38 37.76 12.61 35.58 33.92-1.22 11.85-10.99 19.07-22.04 20.35q-23.33 2.69-43.31-9.07a1 .99-66.8 0 0-1.47.59l-5.54 19.87a1.02 1.01-67.4 0 0 .47 1.15c24.51 13.62 69.77 14.73 89.05-9.88 8.73-11.14 10.78-27.02 7.29-40.38-3.91-14.92-17.79-25.2-31.75-31.23-13.9-6-33.98-12.55-36.18-27.09-3.18-20.93 20.19-25.53 35.26-23.34q11.3 1.64 20.75 6.23a1 1 0 0 0 1.39-.61l5.9-19.11a1 .99 22.1 0 0-.51-1.19c-28.19-13.87-82.33-10.08-88.37 30.05ZM604 337a.34.34 0 0 1 .33.24l14.74 46.26a.34.34 0 0 0 .33.24l26.83.01a.34.34 0 0 0 .33-.44l-51.05-157.82a.34.34 0 0 0-.33-.24h-31.45a.34.34 0 0 0-.33.24l-50.71 157.52a.34.34 0 0 0 .32.44l26.02.27a.34.34 0 0 0 .32-.24l14.08-46.24a.34.34 0 0 1 .32-.24H604Zm507.81-48.25h25.95a1 1 0 0 0 1-.99l.24-17.52a1 1 0 0 0-1-1.02l-26.27.04a1 1 0 0 1-1-1l.06-26.23a1 1 0 0 0-1.29-.96l-23.29 7.03a1.01 1-8.6 0 0-.71.96v19.2a1 .99-89.7 0 1-1 1l-14.5-.04a1 1 0 0 0-1 1v17.55a1 1 0 0 0 1 1l14.47-.06a1 .99 89.7 0 1 1 1q-.02 44.14.12 58.6c.17 19.18 7.16 36.19 28.92 37.37q12.11.66 22.41-2.2a1 1 0 0 0 .73-1l-.68-17.96a1 1 0 0 0-1.22-.94q-4.08.94-10.01.91c-11.24-.06-14.67-9.41-14.77-18.99q-.15-14.01-.16-55.75a1 1 0 0 1 1-1Zm272.58 44.08c1.8-.39 4.25.24 5.43.23q34.37-.27 68.78-.35a1 1 0 0 0 .99-.85q3.33-21.69-5.37-40.32c-9.83-21.07-31.78-28.14-53.64-23.71-22.4 4.54-36.48 23.85-40.56 45.41-5.97 31.56 6.72 65.03 41.66 71.19 17.13 3.03 35.46.84 51.62-5.34a1.01 1.01 0 0 0 .62-1.15l-3.55-16.34a1.01 1-16.5 0 0-1.33-.72q-15.06 5.59-30.8 5.04-10.66-.37-17.94-4.17-15.52-8.09-16.7-27.88a1.02 1-8.1 0 1 .79-1.04Zm-689.11 39.12q5.42 7.71 13.64 11.13 7.58 3.14 18.45 3.07c25.43-.16 43.63-19.24 48.34-43.2 5.04-25.64-.26-58.81-26.46-71.79-12.19-6.04-29.58-5.65-41.67.75q-9.14 4.83-15.05 13.71-1.3 1.95-1.47-.38L690 270.19a.99.99 0 0 0-.99-.93l-20.86-.03a1 1 0 0 0-1 1.05q.48 9.69.81 19.48.3 8.84.3 20-.04 59.59.03 119.24a1 1 0 0 0 1 1h23.43a1 1 0 0 0 1-1l.1-56.59q.01-2.52 1.46-.46Zm126.94-87.54-1.16-14.24a1 .99 87.8 0 0-.99-.92l-20.82-.03a1 1 0 0 0-1 1.06c1.33 24.3.53 49.6.85 74.53.36 28.03.3 56.13.09 84.18a1.01 1 90 0 0 1 1.01H824a1 1 0 0 0 1-1v-56.42q0-2.43 1.44-.48 7.34 9.91 18.65 12.72c26.39 6.55 51.44-8.55 59.52-33.74q6.95-21.64 1.95-44.12c-4.6-20.68-19.31-38.01-41.46-39.88q-26.23-2.21-41.08 17.84-1.58 2.14-1.8-.51Zm359.71-11.34c-43.77 22.83-38.32 104.5 15.03 112.14 32 4.58 59.69-10.84 66.28-43.72 6.6-32.91-7.34-69.43-44.48-73.98-12.52-1.53-25.78-.21-36.83 5.56Zm127.02 15.05-.53-17.9a.99.99 0 0 0-.99-.97h-20.64a1 .99 88.6 0 0-.99 1.05q.67 14.9.68 22.45.04 44.88.02 89.74a1 .99-90 0 0 .99 1l23.51.13a1 1 0 0 0 1.01-1q-.04-27.41.02-55.11c.03-15.68 4.66-34 23.48-35.98q2.66-.28 10.44.14a1 1 0 0 0 1.05-1v-22.34a.99.99 0 0 0-.84-.98q-14.78-2.42-25.06 6.48-7.06 6.11-10.62 14.57-1.43 3.4-1.53-.28Z"/><path fill="#fff" d="M283.64 152c-2.79-29.83 18.9-56.34 45.62-66q7.34-2.65 14.43-3.1a1 1 0 0 1 1.07.94q1.32 23.42-11.85 42.81c-10.5 15.47-29.02 27.3-48.33 26.26a1 1 0 0 1-.94-.91Z"/><rect width="13" height="82" x="840" y="87" fill="#fff" rx=".32"/><path fill="#fff" d="M1042.13 116.71q1.4 1.57 1.39-.53l-.03-28.18a1 1 0 0 1 1-1h10.96a1.01 1 89.7 0 1 1 1q.19 34.68.33 68.31.02 5.71.13 11.42a1 1 0 0 1-1 1.02h-9.43a1 1 0 0 1-1-.96l-.25-5.52q-.11-2.52-1.47-.4-2.22 3.47-5.61 5.53-3.48 2.11-8.65 2.62c-33.85 3.37-35.15-56.11-3.82-58.5q5.57-.43 9.55.76 4.01 1.2 6.9 4.43Zm-13.65 5.04c-13.2 1.98-14.39 21.05-9.79 30.23 6.23 12.41 22.5 8.98 24.71-4.32.53-3.18.85-15.08-1.5-19.33-2.73-4.92-7.87-7.41-13.42-6.58Zm316.9-3.17q1.04-1.1 2.17-2.26c4.72-4.91 12.91-5.94 18.88-4.09 8.35 2.6 13.23 10.54 13.5 19.08q.22 6.88.04 36.45a1 1 0 0 1-1 .99h-10.78a1 1 0 0 1-1-1.03q.52-15.75-.06-33.63c-.55-17.28-23.09-15.26-23.11 1.71q-.02 15.97-.03 31.95a1.01 1-89.7 0 1-1 1h-10.74a1 1 0 0 1-1-1V88a1 1 0 0 1 1-1H1343a1 1 0 0 1 1 1v30.02q0 2 1.38.56Zm-818.87 34.93c.31-20.21-.07-40.44.01-60.66a1 .99 85.2 0 1 .82-.98q17.4-3.09 34.87-.15c21.37 3.6 29.76 20.38 28.71 40.26-1.25 23.45-16.44 35.3-38.85 37.38q-9.8.9-24.62-.58a1 .98 2.6 0 1-.9-.97q-.15-7.15-.04-14.3Zm28.72 4.99c16.01-2.61 22.53-16.31 22.09-31.15-.53-17.36-10.22-26.46-27.62-26.63q-4.52-.04-9.02.28a1.01 1-2.2 0 0-.93 1v56.04a.99.99 0 0 0 .9.99q7.08.69 14.58-.53Zm746.56-46.18 11.7-.09a1 1 0 0 1 1.01 1v8.27a1 1 0 0 1-1 1h-11.83a1 1 0 0 0-1 .97q-.57 19.05.12 29.45c.46 6.82 6.6 6.46 11.63 6.24a1.01 1-2.3 0 1 1.05.96l.3 7.72a1.01 1.01 0 0 1-.73 1.01c-12.58 3.47-24.62.24-24.89-15.06q-.27-15.12-.14-30.28a1 1 0 0 0-1-1.01h-6.51a1 1 0 0 1-1-1v-8.03a1 1 0 0 1 .99-1l6.52-.04a1 1 0 0 0 .99-1v-8.48a1 .99 81.9 0 1 .71-.96l10.5-3.14a.99.99 0 0 1 1.28.93l.29 11.56a1.01 1.01 0 0 0 1.01.98Z"/><path fill="#040707" d="M577.32 127.35c.44 14.84-6.08 28.54-22.09 31.15q-7.5 1.22-14.58.53a.99.99 0 0 1-.9-.99V102a1.01 1-2.2 0 1 .93-1q4.5-.32 9.02-.28c17.4.17 27.09 9.27 27.62 26.63Z"/><path fill="#fff" d="M1410.62 144.82q.99 13.25 13.97 15.06 8.09 1.14 17.43-2.22a1 1 0 0 1 1.32.74l1.53 7.38a.99.99 0 0 1-.65 1.14c-18.59 6.43-41.56 4.03-45.73-18.92-2.71-14.92 3.93-32.61 20.21-36.17 13.67-2.98 25.56 3.93 28.58 18.18q1.27 5.98.52 12.85a1 .99 2.9 0 1-.99.89h-35.19a1 1 0 0 0-1 1.07Zm3.32-19.13q-2.5 3.31-3.22 7.65a1 1 0 0 0 .99 1.16h23.07a1.01 1 89.4 0 0 1-1.03q-.13-5.08-2.99-8.67c-5.08-6.41-14.01-5.53-18.85.89Zm-783.92 44.42c-32.8-1.92-33.01-54.92-1.09-58.52 42.01-4.74 42.44 60.95 1.09 58.52Zm2.6-9.38a19.99 14.41 90.4 0 0 14.55-19.89 19.99 14.41 90.4 0 0-14.27-20.09 19.99 14.41 90.4 0 0-14.55 19.89 19.99 14.41 90.4 0 0 14.27 20.09Zm149.49-41.52q4.93-6.02 12.19-7.44c9.7-1.89 18.87 2.56 22.36 11.96q1.37 3.67 1.63 11.78.52 16.1.08 32.27a1 1 0 0 1-1 .97h-10.84a1 1 0 0 1-1-1q-.06-14.77-.08-29.5c-.01-5.98-.44-12.64-6.63-15.27-5.76-2.45-12.31.42-15.02 6.01q-1.28 2.62-1.32 7.77-.11 15.47.06 30.98a1 1 0 0 1-1 1.01h-11.38a1 1 0 0 1-1-1.02q.6-27.2-.11-54.4a1 1 0 0 1 .99-1.03l9.41-.07a1 1 0 0 1 1 .96l.25 5.55q.09 2.09 1.41.47Zm103.52 48.32c-22.08-10.6-19.36-50.27 6.01-55.4 20.53-4.15 34.13 8.55 34.31 28.36.11 12.58-5.82 23.73-17.88 28.03-7.01 2.5-15.7 2.24-22.44-.99Zm12.55-6.79a20 14.43 90.2 0 0 14.5-19.95 20 14.43 90.2 0 0-14.36-20.05 20 14.43 90.2 0 0-14.5 19.95 20 14.43 90.2 0 0 14.36 20.05Zm74.21 3.37q-4.42 4.74-11.53 5.7c-23.99 3.22-28.63-25.93-7.81-34.3q8.75-3.52 18.4-3.06a1.01 1-87.5 0 0 1.05-.97q.19-6.3-4.18-9.01-3.36-2.08-9.05-1.71-6.18.4-11.66 3.59a1 1 0 0 1-1.46-.57l-2.18-7a1.01 1 69.4 0 1 .54-1.21c18.09-8.19 41.34-6.47 40.99 19.48q-.23 16.33.47 32.66a1 1 0 0 1-1 1.04h-9.46a1.01 1-3.5 0 1-1-.88l-.39-3.2q-.27-2.13-1.73-.56Zm-12.83-20.97c-11.38 3.84-7.58 21.29 5.76 16.56 8.26-2.93 7.64-10.19 7.68-17.71a.99.99 0 0 0-1.02-1q-6.62.18-12.42 2.15Zm154.87 17.28c-11.46-14.88-7.01-43.11 13.65-48.07 29.27-7.03 44.11 23.2 30.89 45.59-9.29 15.72-33.98 16.18-44.54 2.48Zm21.18.31a19.99 14.41 90.4 0 0 14.55-19.89 19.99 14.41 90.4 0 0-14.27-20.09 19.99 14.41 90.4 0 0-14.55 19.89 19.99 14.41 90.4 0 0 14.27 20.09Zm58.49-41.64q5.72-6.61 14.13-7.54c16.13-1.79 22.22 10.85 22.22 24.73q.01 15.72.29 31.45a1.01 1 89.7 0 1-1 1.02h-11.22a1.01 1 89.7 0 1-1-1q-.04-15.76-.01-31.5c0-4.02-.81-8.47-3.68-11.37-5.3-5.36-14.69-2.6-17.91 3.9q-1.38 2.79-1.4 8.35-.04 15.29-.03 30.62a1 1 0 0 1-1 1h-11.37a1 1 0 0 1-1-1.03q.71-27.18 0-54.36a1 1 0 0 1 .99-1.03l9.31-.06a.99.99 0 0 1 1 .95l.27 5.39q.1 1.99 1.41.48Zm-481.91 11.77q-4.94 18.82-11.27 37.22a1.01.99 9.3 0 1-.95.67H689.5a1 1 0 0 1-.96-.72l-15.95-54.21a1 1 0 0 1 .94-1.28l11.13-.22a1.02 1-6.7 0 1 1 .78l9.11 39.58q.69 3 1.55.04l11.53-39.75a1 1 0 0 1 .96-.72h8.85a1.01 1-8.6 0 1 .96.7q6.15 19.69 11.15 39.7.83 3.32 1.55-.03 4.35-19.97 9.92-39.64a1.01 1-81.9 0 1 .96-.73h10.51a1 1 0 0 1 .95 1.3l-17.05 54.5a1 .99-81.2 0 1-.95.7h-10.34a1.01 1 80.7 0 1-.95-.69q-6-18.41-10.63-37.19-.75-3.05-1.55-.01Z"/><path fill="#040707" d="M1413.94 125.69c4.84-6.42 13.77-7.3 18.85-.89q2.86 3.59 2.99 8.67a1.01 1 89.4 0 1-1 1.03h-23.07a1 1 0 0 1-.99-1.16q.72-4.34 3.22-7.65Z"/><ellipse fill="#040707" rx="19.99" ry="14.41" transform="rotate(90.4 246.5 384.549)"/><ellipse fill="#040707" rx="20" ry="14.43" transform="rotate(90.2 379 517.93)"/><ellipse fill="#040707" rx="19.99" ry="14.41" transform="rotate(90.4 497.995 634.294)"/><path fill="#040707" d="M1018.69 151.98c-4.6-9.18-3.41-28.25 9.79-30.23 5.55-.83 10.69 1.66 13.42 6.58 2.35 4.25 2.03 16.15 1.5 19.33-2.21 13.3-18.48 16.73-24.71 4.32Zm-53.37 7.72c-13.34 4.73-17.14-12.72-5.76-16.56q5.8-1.97 12.42-2.15a.99.99 0 0 1 1.02 1c-.04 7.52.58 14.78-7.68 17.71Z"/><path fill="#fff" d="M236.35 156.79c13.14.09 25.74 5.38 37.72 10.4 7.95 3.33 14.53 3.64 22.52.43 22.99-9.25 41.03-15.58 65.17-8.65q23.58 6.76 37.67 26.62a1 .99-34.6 0 1-.26 1.4q-11.63 7.86-19.76 19.14c-25.25 35.03-9.94 81.22 27.6 98.8a1 .99-69.3 0 1 .53 1.19q-2.99 10.06-6.77 17.88-13.42 27.81-32.26 48.26-15.88 17.23-38.42 12.64c-7.61-1.56-17.1-6.67-24.34-8.66-18.35-5.07-31.67-.53-48.4 6.39-25.42 10.51-40.53-3.04-55.2-21.51-28.91-36.4-47.14-87.84-39.74-134.78 5.72-36.3 34.72-69.82 73.94-69.55Zm757.12 152.96c-20.93-8.88-37.2-25.02-33.48-49.74 6.04-40.13 60.18-43.92 88.37-30.05a1 .99 22.1 0 1 .51 1.19l-5.9 19.11a1 1 0 0 1-1.39.61q-9.45-4.59-20.75-6.23c-15.07-2.19-38.44 2.41-35.26 23.34 2.2 14.54 22.28 21.09 36.18 27.09 13.96 6.03 27.84 16.31 31.75 31.23 3.49 13.36 1.44 29.24-7.29 40.38-19.28 24.61-64.54 23.5-89.05 9.88a1.02 1.01-67.4 0 1-.47-1.15l5.54-19.87a1 .99-66.8 0 1 1.47-.59q19.98 11.76 43.31 9.07c11.05-1.28 20.82-8.5 22.04-20.35 2.18-21.31-20.57-27.54-35.58-33.92ZM604 337h-50.25a.34.34 0 0 0-.32.24l-14.08 46.24a.34.34 0 0 1-.32.24l-26.02-.27a.34.34 0 0 1-.32-.44l50.71-157.52a.34.34 0 0 1 .33-.24h31.45a.34.34 0 0 1 .33.24l51.05 157.82a.34.34 0 0 1-.33.44l-26.83-.01a.34.34 0 0 1-.33-.24l-14.74-46.26a.34.34 0 0 0-.33-.24Zm-5.74-20a1 1 0 0 0 .95-1.31q-5.75-17.55-11.34-35.11-2.79-8.76-4.81-16.38-1.95-7.32-3.76-14.62-.79-3.21-1.55.01-2.05 8.67-4.27 17.29-2.23 8.65-5.48 18.99-4.73 15.03-9.45 29.84a1 1 0 0 0 .95 1.31l38.76-.02Zm512.55-27.25q.01 41.74.16 55.75c.1 9.58 3.53 18.93 14.77 18.99q5.93.03 10.01-.91a1 1 0 0 1 1.22.94l.68 17.96a1 1 0 0 1-.73 1q-10.3 2.86-22.41 2.2c-21.76-1.18-28.75-18.19-28.92-37.37q-.14-14.46-.12-58.6a1 .99 89.7 0 0-1-1l-14.47.06a1 1 0 0 1-1-1v-17.55a1 1 0 0 1 1-1l14.5.04a1 .99-89.7 0 0 1-1v-19.2a1.01 1-8.6 0 1 .71-.96l23.29-7.03a1 1 0 0 1 1.29.96l-.06 26.23a1 1 0 0 0 1 1l26.27-.04a1 1 0 0 1 1 1.02l-.24 17.52a1 1 0 0 1-1 .99h-25.95a1 1 0 0 0-1 1Z"/><path fill="#040707" d="m598.26 317-38.76.02a1 1 0 0 1-.95-1.31q4.72-14.81 9.45-29.84 3.25-10.34 5.48-18.99 2.22-8.62 4.27-17.29.76-3.22 1.55-.01 1.81 7.3 3.76 14.62 2.02 7.62 4.81 16.38 5.59 17.56 11.34 35.11a1 1 0 0 1-.95 1.31Z"/><path fill="#fff" d="M1383.6 333.87q1.18 19.79 16.7 27.88 7.28 3.8 17.94 4.17 15.74.55 30.8-5.04a1.01 1-16.5 0 1 1.33.72l3.55 16.34a1.01 1.01 0 0 1-.62 1.15c-16.16 6.18-34.49 8.37-51.62 5.34-34.94-6.16-47.63-39.63-41.66-71.19 4.08-21.56 18.16-40.87 40.56-45.41 21.86-4.43 43.81 2.64 53.64 23.71q8.7 18.63 5.37 40.32a1 1 0 0 1-.99.85q-34.41.08-68.78.35c-1.18.01-3.63-.62-5.43-.23a1.02 1-8.1 0 0-.79 1.04Zm39.84-19.81q8.48.16 11.45.08a1 1 0 0 0 .98-1.01q-.11-9.66-5.1-17.9c-7.93-13.11-26.35-13.74-36.84-3.4q-8.54 8.42-10.13 21.25a1 1 0 0 0 1 1.12q30.84-.28 38.64-.14Zm-728.16 57.89q-1.45-2.06-1.46.46l-.1 56.59a1 1 0 0 1-1 1h-23.43a1 1 0 0 1-1-1q-.07-59.65-.03-119.24 0-11.16-.3-20-.33-9.79-.81-19.48a1 1 0 0 1 1-1.05l20.86.03a.99.99 0 0 1 .99.93l1.06 15.05q.17 2.33 1.47.38 5.91-8.88 15.05-13.71c12.09-6.4 29.48-6.79 41.67-.75 26.2 12.98 31.5 46.15 26.46 71.79-4.71 23.96-22.91 43.04-48.34 43.2q-10.87.07-18.45-3.07-8.22-3.42-13.64-11.13Zm-.99-31.91c.92 10.9 8.3 22.14 19.44 24.74 45.78 10.67 50.31-72.78 10.89-77.15q-8.94-.99-16.6 3.88c-16.32 10.35-15.18 31.48-13.73 48.53Zm127.93-55.63q.22 2.65 1.8.51 14.85-20.05 41.08-17.84c22.15 1.87 36.86 19.2 41.46 39.88q5 22.48-1.95 44.12c-8.08 25.19-33.13 40.29-59.52 33.74q-11.31-2.81-18.65-12.72-1.44-1.95-1.44.48V429a1 1 0 0 1-1 1h-23.81a1.01 1-90 0 1-1-1.01c.21-28.05.27-56.15-.09-84.18-.32-24.93.48-50.23-.85-74.53a1 1 0 0 1 1-1.06l20.82.03a1 .99 87.8 0 1 .99.92l1.16 14.24Zm2.86 52.56c.24 14.72 10.44 28.54 25.95 28.8 28.14.47 34.66-31.19 29.77-53.05-2.72-12.17-10.71-22.98-23.42-24.79q-10.24-1.45-18.83 4.11c-15.32 9.94-13.76 27.37-13.47 44.93Zm371.88 48.24c-53.35-7.64-58.8-89.31-15.03-112.14 11.05-5.77 24.31-7.09 36.83-5.56 37.14 4.55 51.08 41.07 44.48 73.98-6.59 32.88-34.28 48.3-66.28 43.72Zm5.81-98.67c-32.73 7.4-31.5 77.23 2.75 80.37q14.77 1.36 23.31-10.33c11.07-15.17 11.75-36.29 4.5-53.12-5.44-12.63-16.94-20-30.56-16.92Zm106.18 1.58q.1 3.68 1.53.28 3.56-8.46 10.62-14.57 10.28-8.9 25.06-6.48a.99.99 0 0 1 .84.98v22.34a1 1 0 0 1-1.05 1q-7.78-.42-10.44-.14c-18.82 1.98-23.45 20.3-23.48 35.98q-.06 27.7-.02 55.11a1 1 0 0 1-1.01 1l-23.51-.13a1 .99 90 0 1-.99-1q.02-44.86-.02-89.74-.01-7.55-.68-22.45a1 .99 88.6 0 1 .99-1.05h20.64a.99.99 0 0 1 .99.97l.53 17.9Z"/><path fill="#040707" d="M1423.44 314.06q-7.8-.14-38.64.14a1 1 0 0 1-1-1.12q1.59-12.83 10.13-21.25c10.49-10.34 28.91-9.71 36.84 3.4q4.99 8.24 5.1 17.9a1 1 0 0 1-.98 1.01q-2.97.08-11.45-.08Zm-217.92 52.85c-34.25-3.14-35.48-72.97-2.75-80.37 13.62-3.08 25.12 4.29 30.56 16.92 7.25 16.83 6.57 37.95-4.5 53.12q-8.54 11.69-23.31 10.33Zm-491.79-2.13c-11.14-2.6-18.52-13.84-19.44-24.74-1.45-17.05-2.59-38.18 13.73-48.53q7.66-4.87 16.6-3.88c39.42 4.37 34.89 87.82-10.89 77.15Zm137.3.99c-15.51-.26-25.71-14.08-25.95-28.8-.29-17.56-1.85-34.99 13.47-44.93q8.59-5.56 18.83-4.11c12.71 1.81 20.7 12.62 23.42 24.79 4.89 21.86-1.63 53.52-29.77 53.05Z"/></svg>