<svg xmlns="http://www.w3.org/2000/svg" viewBox="0 0 500 148"><g fill="none" stroke-width="2"><path stroke="#545454" d="M496.99 19.85A15.85 15.85 0 0 0 481.14 4H18.86A15.85 15.85 0 0 0 3.01 19.85v110.3A15.85 15.85 0 0 0 18.86 146h462.28a15.85 15.85 0 0 0 15.85-15.85V19.85" vector-effect="non-scaling-stroke"/><path stroke="gray" d="M171.73 40.25a.62.61-79.2 0 1 .57.84c-3.28 8.13-14.63 6.11-15.78-1.87-1.08-7.53 8.04-13.39 13.89-7.33q.41.43.83.01l1.69-1.73q.51-.53-.05-1-4.49-3.82-9.67-3.11c-16.85 2.29-11.74 28.3 5.51 23.08q7.36-2.24 7.37-11.76 0-.63-.63-.63h-10.71q-.5 0-.5.5v2.38q0 .62.63.62h6.85M276.38 37.88a11.9 11.9 0 0 0-11.9-11.9 11.9 11.9 0 0 0-11.9 11.9 11.9 11.9 0 0 0 11.9 11.9 11.9 11.9 0 0 0 11.9-11.9M183 30.42a.42.42 0 0 1 .42-.42h9.16a.42.42 0 0 0 .42-.42v-2.66a.42.42 0 0 0-.42-.42h-12.91a.42.42 0 0 0-.42.42v21.91a.42.42 0 0 0 .42.42h12.91a.42.42 0 0 0 .42-.42v-2.41a.42.42 0 0 0-.42-.42h-9.16a.42.42 0 0 1-.42-.42v-5.66a.42.42 0 0 1 .42-.42h8.16a.42.42 0 0 0 .42-.42v-2.41a.42.42 0 0 0-.42-.42h-8.16a.42.42 0 0 1-.42-.42v-5.41M205 30.37a.37.37 0 0 1 .37-.37h5.76a.37.37 0 0 0 .37-.37v-2.76a.37.37 0 0 0-.37-.37h-15.49a.37.37 0 0 0-.37.37l-.03 2.76a.37.37 0 0 0 .37.37h5.52a.37.37 0 0 1 .37.37v18.51a.37.37 0 0 0 .37.37h2.76a.37.37 0 0 0 .37-.37V30.37M225.25 26.93a.43.43 0 0 0-.43-.43h-2.64a.43.43 0 0 0-.43.43v22.14a.43.43 0 0 0 .43.43h2.64a.43.43 0 0 0 .43-.43V26.93M238 30.44a.44.44 0 0 1 .44-.44h5.12a.44.44 0 0 0 .44-.44v-2.62a.44.44 0 0 0-.44-.44h-15.12a.44.44 0 0 0-.44.44v2.62a.44.44 0 0 0 .44.44h5.37a.44.44 0 0 1 .44.44v18.37a.44.44 0 0 0 .44.44h2.87a.44.44 0 0 0 .44-.44V30.44M293.75 41.39a.33.33 0 0 1-.61.17l-9.39-14.91a.33.33 0 0 0-.28-.15h-3.64a.33.33 0 0 0-.33.33v22.34a.33.33 0 0 0 .33.33h3.09a.33.33 0 0 0 .33-.33V33.5a.33.33 0 0 1 .61-.17l9.85 15.76a.33.33 0 0 0 .28.16h3.18a.33.33 0 0 0 .33-.33V26.83a.33.33 0 0 0-.33-.33h-3.09a.33.33 0 0 0-.33.33v14.56" vector-effect="non-scaling-stroke"/><path stroke="#006480" d="M38.46 28.75c-.78 1.84-1.4 2.29-1.4 4.52l-.02 15.98" vector-effect="non-scaling-stroke"/><path stroke="#006b80" d="m37.04 49.25.02 68.44q0 1.45 1.44 3.1" vector-effect="non-scaling-stroke"/><path stroke="#771727" d="M38.5 120.79q3.15 3.16 6.69 1.15 27.68-15.72 55.35-31.44" vector-effect="non-scaling-stroke"/><path stroke="#806600" d="M100.54 90.5q9.54-5.1 18.73-10.73c4.35-2.67 4.14-7.47-.1-9.93q-9.3-5.38-18.67-10.63" vector-effect="non-scaling-stroke"/><path stroke="#00783b" d="M100.5 59.21Q74.55 44.42 48.65 29.55c-3.4-1.95-7.03-3.72-10.19-.8" vector-effect="non-scaling-stroke"/><path stroke="#80de3b" d="M100.5 59.21 85.21 74.75" vector-effect="non-scaling-stroke"/><path stroke="#778f62" d="m85.21 74.75-.92.25" vector-effect="non-scaling-stroke"/><path stroke="#00dcbb" d="m84.29 75-.02-.25q0-.04-.03-.07L38.46 28.75" vector-effect="non-scaling-stroke"/><path stroke="#777ba6" d="m84.29 75-10.5 10.5" vector-effect="non-scaling-stroke"/><path stroke="#00cfff" d="M73.79 85.5q.07-.27-.06-.51-.28-.52-.59-.02-.18.29-.43.5-1.71 1.44-.28-.24.22-.26.45-.49.51-.5 0-1.01L39.64 50.54q-.31-.31-.74-.18l-1.01.3q-.46.14-.58-.33l-.27-1.08" vector-effect="non-scaling-stroke"/><path stroke="#f67c27" d="M100.54 90.5 85.21 74.75" vector-effect="non-scaling-stroke"/><path stroke="#7781a6" d="M73.79 85.5 38.5 120.79" vector-effect="non-scaling-stroke"/><path stroke="gray" d="M192.58 93.68c-1.87 9.73-11.73 14.39-20.69 11.66-14.29-4.35-17.42-23.31-4.6-31.64q10.21-6.63 21.38 1.53.42.31.79-.06l3.85-3.85q.57-.57-.03-1.12c-9.53-8.56-24.56-8.81-33.97-.11-13.38 12.37-9.3 34.32 7.51 41.1 5.78 2.33 14.17 2.24 19.97-.35q13.6-6.06 12.99-23.35-.05-1.49-1.54-1.49H177.9a1.16 1.15-90 0 0-1.15 1.16v5.21q0 .63.63.63h14.64q.69 0 .56.68M313 66.01a.51.51 0 0 0-.51-.51h-5.98a.51.51 0 0 0-.51.51v45.48a.51.51 0 0 0 .51.51h5.98a.51.51 0 0 0 .51-.51V66.01M368.02 94.5c8.22.02 18.71 1.28 22.91-7.56 4.97-10.45-1.85-21.3-13.44-21.4q-8.47-.06-16.93-.03a.31.31 0 0 0-.31.31v45.43q0 .75.75.75h6q.5 0 .5-.5V95.01q0-.51.52-.51M403 66.01a.51.51 0 0 0-.51-.51h-5.98a.51.51 0 0 0-.51.51v45.48a.51.51 0 0 0 .51.51h5.98a.51.51 0 0 0 .51-.51V66.01M233.79 97.13a15.84 15.84 0 0 0-15.84-15.84 15.84 15.84 0 0 0-15.84 15.84 15.84 15.84 0 0 0 15.84 15.84 15.84 15.84 0 0 0 15.84-15.84M268.31 97.11a15.84 15.84 0 0 0-15.84-15.84 15.84 15.84 0 0 0-15.84 15.84 15.84 15.84 0 0 0 15.84 15.84 15.84 15.84 0 0 0 15.84-15.84M294.38 110.22c1.13 10.71-11.64 14.1-15.73 5.01q-.21-.48-.69-.27l-5.25 2.21q-.52.22-.28.74 3.78 8.09 12.54 8.85c11.09.95 16.17-6.82 16.27-16.76q.09-8.71-.03-27.24 0-.51-.51-.51h-5.57q-.63 0-.63.62v1.08q0 .71-.53.24c-6.75-6-16.36-2.28-20.67 4.63-7.21 11.56 2.97 26.1 16.47 23.5 1.53-.29 2.76-1.57 4.1-2.35q.45-.27.51.25M345.23 92.73c-6.25-19.19-32.35-12.06-28.71 7.27 2.71 14.42 19.69 17.13 28.58 6.28a.41.4 36.7 0 0-.09-.59l-4.73-3.19q-.44-.3-.8.09-7.46 7.88-14.63.17a.67.67 0 0 1 .23-1.08l19.82-8.22q.5-.21.33-.73M427.25 109.26v2.12q0 .62.63.62h5.43q.67 0 .67-.67.05-7.34.01-14.66c-.04-7.86-1.69-12.59-9.42-14.73q-10.87-3-16.97 5.62-.48.67.28 1l5.1 2.23q.56.25.93-.24c3.83-5.02 10.62-3.82 13.15 1.83q.69 1.54-.87.9c-7.32-3-21.43.24-19.41 10.71 1.81 9.34 13.75 11.75 20.06 5.11q.41-.43.41.16M449.86 101.28l-7.66-18.54q-.2-.49-.73-.49h-6.44q-.72 0-.43.66c1.38 3.12 12.37 26.81 11.83 28.03q-3.23 7.3-6.58 14.66-.3.65.42.65h6.17q.62 0 .86-.56l18.6-42.8q.28-.64-.42-.64h-6.73q-.55 0-.75.51l-7.34 18.51q-.39 1-.8.01M265.84 46.162a8.4 8.08 80.4 0 0 6.567-9.63 8.4 8.08 80.4 0 0-9.368-6.934 8.4 8.08 80.4 0 0-6.566 9.63 8.4 8.08 80.4 0 0 9.368 6.934" vector-effect="non-scaling-stroke"/><path stroke="gray" d="m367.47 72.75.06 14.6a.46.46 0 0 0 .46.46l8.81-.03a8.17 7.65-.2 0 0 8.14-7.68v-.22a8.17 7.65-.2 0 0-8.2-7.62l-8.81.03a.46.46 0 0 0-.46.46M226.56 97.2a9.34 9.34 0 0 0-9.34-9.34 9.34 9.34 0 0 0-9.34 9.34 9.34 9.34 0 0 0 9.34 9.34 9.34 9.34 0 0 0 9.34-9.34M261.09 97.21a9.35 9.35 0 0 0-9.35-9.35 9.35 9.35 0 0 0-9.35 9.35 9.35 9.35 0 0 0 9.35 9.35 9.35 9.35 0 0 0 9.35-9.35M286.708 106.37a9.23 8.38 90.2 0 0 8.412-9.2 9.23 8.38 90.2 0 0-8.348-9.26 9.23 8.38 90.2 0 0-8.412 9.2 9.23 8.38 90.2 0 0 8.348 9.26M335.67 88.77c-6.12-2.25-11.81.46-12.38 6.96q-.06.67.56.41l11.87-4.91a1.32 1.32 0 0 0-.05-2.46M414.19 100.94c-3.15 6.14 10.36 8.41 12.72-.97q.13-.52-.35-.76c-3.35-1.64-10.38-2.16-12.37 1.73" vector-effect="non-scaling-stroke"/></g><path fill="#a7a7a7" d="M500 16.56v117q-2.26 10.41-12.06 14.44h-476Q2.21 143.86 0 133.44v-117C2.46 5.37 10.04.75 20.72.75h457.65c11.2 0 19.05 4 21.63 15.81Zm-3.01 3.29A15.85 15.85 0 0 0 481.14 4H18.86A15.85 15.85 0 0 0 3.01 19.85v110.3A15.85 15.85 0 0 0 18.86 146h462.28a15.85 15.85 0 0 0 15.85-15.85V19.85Z"/><path d="M496.99 130.15A15.85 15.85 0 0 1 481.14 146H18.86a15.85 15.85 0 0 1-15.85-15.85V19.85A15.85 15.85 0 0 1 18.86 4h462.28a15.85 15.85 0 0 1 15.85 15.85v110.3Zm-325.26-89.9a.62.61-79.2 0 1 .57.84c-3.28 8.13-14.63 6.11-15.78-1.87-1.08-7.53 8.04-13.39 13.89-7.33q.41.43.83.01l1.69-1.73q.51-.53-.05-1-4.49-3.82-9.67-3.11c-16.85 2.29-11.74 28.3 5.51 23.08q7.36-2.24 7.37-11.76 0-.63-.63-.63h-10.71q-.5 0-.5.5v2.38q0 .62.63.62h6.85Zm104.65-2.37a11.9 11.9 0 0 0-11.9-11.9 11.9 11.9 0 0 0-11.9 11.9 11.9 11.9 0 0 0 11.9 11.9 11.9 11.9 0 0 0 11.9-11.9ZM183 30.42a.42.42 0 0 1 .42-.42h9.16a.42.42 0 0 0 .42-.42v-2.66a.42.42 0 0 0-.42-.42h-12.91a.42.42 0 0 0-.42.42v21.91a.42.42 0 0 0 .42.42h12.91a.42.42 0 0 0 .42-.42v-2.41a.42.42 0 0 0-.42-.42h-9.16a.42.42 0 0 1-.42-.42v-5.66a.42.42 0 0 1 .42-.42h8.16a.42.42 0 0 0 .42-.42v-2.41a.42.42 0 0 0-.42-.42h-8.16a.42.42 0 0 1-.42-.42v-5.41Zm22-.05a.37.37 0 0 1 .37-.37h5.76a.37.37 0 0 0 .37-.37v-2.76a.37.37 0 0 0-.37-.37h-15.49a.37.37 0 0 0-.37.37l-.03 2.76a.37.37 0 0 0 .37.37h5.52a.37.37 0 0 1 .37.37v18.51a.37.37 0 0 0 .37.37h2.76a.37.37 0 0 0 .37-.37V30.37Zm20.25-3.44a.43.43 0 0 0-.43-.43h-2.64a.43.43 0 0 0-.43.43v22.14a.43.43 0 0 0 .43.43h2.64a.43.43 0 0 0 .43-.43V26.93ZM238 30.44a.44.44 0 0 1 .44-.44h5.12a.44.44 0 0 0 .44-.44v-2.62a.44.44 0 0 0-.44-.44h-15.12a.44.44 0 0 0-.44.44v2.62a.44.44 0 0 0 .44.44h5.37a.44.44 0 0 1 .44.44v18.37a.44.44 0 0 0 .44.44h2.87a.44.44 0 0 0 .44-.44V30.44Zm55.75 10.95a.33.33 0 0 1-.61.17l-9.39-14.91a.33.33 0 0 0-.28-.15h-3.64a.33.33 0 0 0-.33.33v22.34a.33.33 0 0 0 .33.33h3.09a.33.33 0 0 0 .33-.33V33.5a.33.33 0 0 1 .61-.17l9.85 15.76a.33.33 0 0 0 .28.16h3.18a.33.33 0 0 0 .33-.33V26.83a.33.33 0 0 0-.33-.33h-3.09a.33.33 0 0 0-.33.33v14.56ZM38.46 28.75c-.78 1.84-1.4 2.29-1.4 4.52l-.02 15.98.02 68.44q0 1.45 1.44 3.1 3.15 3.16 6.69 1.15 27.68-15.72 55.35-31.44 9.54-5.1 18.73-10.73c4.35-2.67 4.14-7.47-.1-9.93q-9.3-5.38-18.67-10.63-25.95-14.79-51.85-29.66c-3.4-1.95-7.03-3.72-10.19-.8Zm154.12 64.93c-1.87 9.73-11.73 14.39-20.69 11.66-14.29-4.35-17.42-23.31-4.6-31.64q10.21-6.63 21.38 1.53.42.31.79-.06l3.85-3.85q.57-.57-.03-1.12c-9.53-8.56-24.56-8.81-33.97-.11-13.38 12.37-9.3 34.32 7.51 41.1 5.78 2.33 14.17 2.24 19.97-.35q13.6-6.06 12.99-23.35-.05-1.49-1.54-1.49H177.9a1.16 1.15-90 0 0-1.15 1.16v5.21q0 .63.63.63h14.64q.69 0 .56.68ZM313 66.01a.51.51 0 0 0-.51-.51h-5.98a.51.51 0 0 0-.51.51v45.48a.51.51 0 0 0 .51.51h5.98a.51.51 0 0 0 .51-.51V66.01Zm55.02 28.49c8.22.02 18.71 1.28 22.91-7.56 4.97-10.45-1.85-21.3-13.44-21.4q-8.47-.06-16.93-.03a.31.31 0 0 0-.31.31v45.43q0 .75.75.75h6q.5 0 .5-.5V95.01q0-.51.52-.51ZM403 66.01a.51.51 0 0 0-.51-.51h-5.98a.51.51 0 0 0-.51.51v45.48a.51.51 0 0 0 .51.51h5.98a.51.51 0 0 0 .51-.51V66.01ZM233.79 97.13a15.84 15.84 0 0 0-15.84-15.84 15.84 15.84 0 0 0-15.84 15.84 15.84 15.84 0 0 0 15.84 15.84 15.84 15.84 0 0 0 15.84-15.84Zm34.52-.02a15.84 15.84 0 0 0-15.84-15.84 15.84 15.84 0 0 0-15.84 15.84 15.84 15.84 0 0 0 15.84 15.84 15.84 15.84 0 0 0 15.84-15.84Zm26.07 13.11c1.13 10.71-11.64 14.1-15.73 5.01q-.21-.48-.69-.27l-5.25 2.21q-.52.22-.28.74 3.78 8.09 12.54 8.85c11.09.95 16.17-6.82 16.27-16.76q.09-8.71-.03-27.24 0-.51-.51-.51h-5.57q-.63 0-.63.62v1.08q0 .71-.53.24c-6.75-6-16.36-2.28-20.67 4.63-7.21 11.56 2.97 26.1 16.47 23.5 1.53-.29 2.76-1.57 4.1-2.35q.45-.27.51.25Zm50.85-17.49c-6.25-19.19-32.35-12.06-28.71 7.27 2.71 14.42 19.69 17.13 28.58 6.28a.41.4 36.7 0 0-.09-.59l-4.73-3.19q-.44-.3-.8.09-7.46 7.88-14.63.17a.67.67 0 0 1 .23-1.08l19.82-8.22q.5-.21.33-.73Zm82.02 16.53v2.12q0 .62.63.62h5.43q.67 0 .67-.67.05-7.34.01-14.66c-.04-7.86-1.69-12.59-9.42-14.73q-10.87-3-16.97 5.62-.48.67.28 1l5.1 2.23q.56.25.93-.24c3.83-5.02 10.62-3.82 13.15 1.83q.69 1.54-.87.9c-7.32-3-21.43.24-19.41 10.71 1.81 9.34 13.75 11.75 20.06 5.11q.41-.43.41.16Zm22.61-7.98-7.66-18.54q-.2-.49-.73-.49h-6.44q-.72 0-.43.66c1.38 3.12 12.37 26.81 11.83 28.03q-3.23 7.3-6.58 14.66-.3.65.42.65h6.17q.62 0 .86-.56l18.6-42.8q.28-.64-.42-.64h-6.73q-.55 0-.75.51l-7.34 18.51q-.39 1-.8.01Z"/><path fill="#fff" d="M171.73 40.25h-6.85q-.63 0-.63-.62v-2.38q0-.5.5-.5h10.71q.63 0 .63.63-.01 9.52-7.37 11.76c-17.25 5.22-22.36-20.79-5.51-23.08q5.18-.71 9.67 3.11.56.47.05 1l-1.69 1.73q-.42.42-.83-.01c-5.85-6.06-14.97-.2-13.89 7.33 1.15 7.98 12.5 10 15.78 1.87a.62.61-79.2 0 0-.57-.84ZM276.38 37.88a11.9 11.9 0 0 1-11.9 11.9 11.9 11.9 0 0 1-11.9-11.9 11.9 11.9 0 0 1 11.9-11.9 11.9 11.9 0 0 1 11.9 11.9Zm-10.54 8.282a8.4 8.08 80.4 0 0 6.567-9.63 8.4 8.08 80.4 0 0-9.368-6.934 8.4 8.08 80.4 0 0-6.566 9.63 8.4 8.08 80.4 0 0 9.368 6.934ZM183 30.42v5.41a.42.42 0 0 0 .42.42h8.16a.42.42 0 0 1 .42.42v2.41a.42.42 0 0 1-.42.42h-8.16a.42.42 0 0 0-.42.42v5.66a.42.42 0 0 0 .42.42h9.16a.42.42 0 0 1 .42.42v2.41a.42.42 0 0 1-.42.42h-12.91a.42.42 0 0 1-.42-.42V26.92a.42.42 0 0 1 .42-.42h12.91a.42.42 0 0 1 .42.42v2.66a.42.42 0 0 1-.42.42h-9.16a.42.42 0 0 0-.42.42ZM205 30.37v18.51a.37.37 0 0 1-.37.37h-2.76a.37.37 0 0 1-.37-.37V30.37a.37.37 0 0 0-.37-.37h-5.52a.37.37 0 0 1-.37-.37l.03-2.76a.37.37 0 0 1 .37-.37h15.49a.37.37 0 0 1 .37.37v2.76a.37.37 0 0 1-.37.37h-5.76a.37.37 0 0 0-.37.37Z"/><rect width="3.5" height="23" x="221.75" y="26.5" fill="#fff" rx=".43"/><path fill="#fff" d="M238 30.44v18.37a.44.44 0 0 1-.44.44h-2.87a.44.44 0 0 1-.44-.44V30.44a.44.44 0 0 0-.44-.44h-5.37a.44.44 0 0 1-.44-.44v-2.62a.44.44 0 0 1 .44-.44h15.12a.44.44 0 0 1 .44.44v2.62a.44.44 0 0 1-.44.44h-5.12a.44.44 0 0 0-.44.44ZM293.75 41.39V26.83a.33.33 0 0 1 .33-.33h3.09a.33.33 0 0 1 .33.33v22.09a.33.33 0 0 1-.33.33h-3.18a.33.33 0 0 1-.28-.16l-9.85-15.76a.33.33 0 0 0-.61.17v15.67a.33.33 0 0 1-.33.33h-3.09a.33.33 0 0 1-.33-.33V26.83a.33.33 0 0 1 .33-.33h3.64a.33.33 0 0 1 .28.15l9.39 14.91a.33.33 0 0 0 .61-.17Z"/><path fill="#00f076" d="M100.5 59.21 85.21 74.75l-.92.25-.02-.25q0-.04-.03-.07L38.46 28.75c3.16-2.92 6.79-1.15 10.19.8q25.9 14.87 51.85 29.66Z"/><path fill="#00c8ff" d="m38.46 28.75 45.78 45.93q.03.03.03.07l.02.25-10.5 10.5q.07-.27-.06-.51-.28-.52-.59-.02-.18.29-.43.5-1.71 1.44-.28-.24.22-.26.45-.49.51-.5 0-1.01L39.64 50.54q-.31-.31-.74-.18l-1.01.3q-.46.14-.58-.33l-.27-1.08.02-15.98c0-2.23.62-2.68 1.4-4.52Z"/><ellipse rx="8.4" ry="8.08" transform="rotate(80.4 109.808 175.401)"/><path fill="#00d5ff" d="m37.04 49.25.27 1.08q.12.47.58.33l1.01-.3q.43-.13.74.18l33.24 33.19q.51.51 0 1.01-.23.23-.45.49-1.43 1.68.28.24.25-.21.43-.5.31-.5.59.02.13.24.06.51L38.5 120.79q-1.44-1.65-1.44-3.1l-.02-68.44Z"/><path fill="#ffcb00" d="M100.5 59.21q9.37 5.25 18.67 10.63c4.24 2.46 4.45 7.26.1 9.93q-9.19 5.63-18.73 10.73L85.21 74.75l15.29-15.54Z"/><path fill="#fff" d="M192.02 93h-14.64q-.63 0-.63-.63v-5.21A1.16 1.15-90 0 1 177.9 86h20.34q1.49 0 1.54 1.49.61 17.29-12.99 23.35c-5.8 2.59-14.19 2.68-19.97.35-16.81-6.78-20.89-28.73-7.51-41.1 9.41-8.7 24.44-8.45 33.97.11q.6.55.03 1.12l-3.85 3.85q-.37.37-.79.06-11.17-8.16-21.38-1.53c-12.82 8.33-9.69 27.29 4.6 31.64 8.96 2.73 18.82-1.93 20.69-11.66q.13-.68-.56-.68Z"/><rect width="7" height="46.5" x="306" y="65.5" fill="#fff" rx=".51"/><path fill="#fff" d="M367.5 95.01v16.49q0 .5-.5.5h-6q-.75 0-.75-.75V65.82a.31.31 0 0 1 .31-.31q8.46-.03 16.93.03c11.59.1 18.41 10.95 13.44 21.4-4.2 8.84-14.69 7.58-22.91 7.56q-.52 0-.52.51Zm-.03-22.26.06 14.6a.46.46 0 0 0 .46.46l8.81-.03a8.17 7.65-.2 0 0 8.14-7.68v-.22a8.17 7.65-.2 0 0-8.2-7.62l-8.81.03a.46.46 0 0 0-.46.46Z"/><rect width="7" height="46.5" x="396" y="65.5" fill="#fff" rx=".51"/><path d="M367.47 72.75a.46.46 0 0 1 .46-.46l8.81-.03a8.17 7.65-.2 0 1 8.2 7.62v.22a8.17 7.65-.2 0 1-8.14 7.68l-8.81.03a.46.46 0 0 1-.46-.46l-.06-14.6Z"/><path fill="#ed2d4d" d="m85.21 74.75 15.33 15.75q-27.67 15.72-55.35 31.44-3.54 2.01-6.69-1.15L73.79 85.5 84.29 75l.92-.25Z"/><path fill="#fff" d="M233.79 97.13a15.84 15.84 0 0 1-15.84 15.84 15.84 15.84 0 0 1-15.84-15.84 15.84 15.84 0 0 1 15.84-15.84 15.84 15.84 0 0 1 15.84 15.84Zm-7.23.07a9.34 9.34 0 0 0-9.34-9.34 9.34 9.34 0 0 0-9.34 9.34 9.34 9.34 0 0 0 9.34 9.34 9.34 9.34 0 0 0 9.34-9.34ZM268.31 97.11a15.84 15.84 0 0 1-15.84 15.84 15.84 15.84 0 0 1-15.84-15.84 15.84 15.84 0 0 1 15.84-15.84 15.84 15.84 0 0 1 15.84 15.84Zm-7.22.1a9.35 9.35 0 0 0-9.35-9.35 9.35 9.35 0 0 0-9.35 9.35 9.35 9.35 0 0 0 9.35 9.35 9.35 9.35 0 0 0 9.35-9.35ZM293.87 109.97c-1.34.78-2.57 2.06-4.1 2.35-13.5 2.6-23.68-11.94-16.47-23.5 4.31-6.91 13.92-10.63 20.67-4.63q.53.47.53-.24v-1.08q0-.62.63-.62h5.57q.51 0 .51.51.12 18.53.03 27.24c-.1 9.94-5.18 17.71-16.27 16.76q-8.76-.76-12.54-8.85-.24-.52.28-.74l5.25-2.21q.48-.21.69.27c4.09 9.09 16.86 5.7 15.73-5.01q-.06-.52-.51-.25Zm-7.162-3.6a9.23 8.38 90.2 0 0 8.412-9.2 9.23 8.38 90.2 0 0-8.348-9.26 9.23 8.38 90.2 0 0-8.412 9.2 9.23 8.38 90.2 0 0 8.348 9.26ZM316.52 100c-3.64-19.33 22.46-26.46 28.71-7.27q.17.52-.33.73l-19.82 8.22a.67.67 0 0 0-.23 1.08q7.17 7.71 14.63-.17.36-.39.8-.09l4.73 3.19a.41.4 36.7 0 1 .09.59c-8.89 10.85-25.87 8.14-28.58-6.28Zm19.15-11.23c-6.12-2.25-11.81.46-12.38 6.96q-.06.67.56.41l11.87-4.91a1.32 1.32 0 0 0-.05-2.46ZM426.84 109.1c-6.31 6.64-18.25 4.23-20.06-5.11-2.02-10.47 12.09-13.71 19.41-10.71q1.56.64.87-.9c-2.53-5.65-9.32-6.85-13.15-1.83q-.37.49-.93.24l-5.1-2.23q-.76-.33-.28-1 6.1-8.62 16.97-5.62c7.73 2.14 9.38 6.87 9.42 14.73q.04 7.32-.01 14.66 0 .67-.67.67h-5.43q-.63 0-.63-.62v-2.12q0-.59-.41-.16Zm-12.65-8.16c-3.15 6.14 10.36 8.41 12.72-.97q.13-.52-.35-.76c-3.35-1.64-10.38-2.16-12.37 1.73ZM450.66 101.27 458 82.76q.2-.51.75-.51h6.73q.7 0 .42.64l-18.6 42.8q-.24.56-.86.56h-6.17q-.72 0-.42-.65 3.35-7.36 6.58-14.66c.54-1.22-10.45-24.91-11.83-28.03q-.29-.66.43-.66h6.44q.53 0 .73.49l7.66 18.54q.41.99.8-.01Z"/><circle cx="217.22" cy="97.2" r="9.34"/><circle cx="251.74" cy="97.21" r="9.35"/><ellipse rx="9.23" ry="8.38" transform="rotate(90.2 94.97 191.44)"/><path d="M323.29 95.73c.57-6.5 6.26-9.21 12.38-6.96a1.32 1.32 0 0 1 .05 2.46l-11.87 4.91q-.62.26-.56-.41ZM414.19 100.94c1.99-3.89 9.02-3.37 12.37-1.73q.48.24.35.76c-2.36 9.38-15.87 7.11-12.72.97Z"/></svg>